<svg xmlns="http://www.w3.org/2000/svg" version="1.1" xmlns:xlink="http://www.w3.org/1999/xlink" width="1920" height="1080" preserveAspectRatio="none" viewBox="0 0 1920 1080">
    <g mask="url(&quot;#SvgjsMask1000&quot;)" fill="none">
        <rect width="1920" height="1080" x="0" y="0" fill="rgba(17, 24, 39, 1)"></rect>
        <path d="M1920 0L1871.85 0L1920 55.36z" fill="rgba(255, 255, 255, 0.1)"></path>
        <path d="M1871.85 0L1920 55.36L1920 204.45L1694.45 0z" fill="rgba(255, 255, 255, 0.075)"></path>
        <path d="M1694.45 0L1920 204.45L1920 520.02L1481.32 0z" fill="rgba(255, 255, 255, 0.05)"></path>
        <path d="M1481.32 0L1920 520.02L1920 661.03L1197.93 0z" fill="rgba(255, 255, 255, 0.025)"></path>
        <path d="M0 1080L297.86 1080L0 912.05z" fill="rgba(0, 0, 0, 0.1)"></path>
        <path d="M0 912.05L297.86 1080L589.03 1080L0 653.03z" fill="rgba(0, 0, 0, 0.075)"></path>
        <path d="M0 653.03L589.03 1080L913.45 1080L0 515.03z" fill="rgba(0, 0, 0, 0.05)"></path>
        <path d="M0 515.03L913.45 1080L1087.45 1080L0 290.45999999999998z" fill="rgba(0, 0, 0, 0.025)"></path>
    </g>
    <defs>
        <mask id="SvgjsMask1000">
            <rect width="1920" height="1080" fill="#ffffff"></rect>
        </mask>
    </defs>
</svg>